<svg width="17" height="17" viewBox="0 0 17 17" fill="none" xmlns="http://www.w3.org/2000/svg">
<path d="M15.5833 0H1.41667C1.04094 0 0.680609 0.149255 0.414932 0.414932C0.149255 0.680609 0 1.04094 0 1.41667V15.5833C0 15.9591 0.149255 16.3194 0.414932 16.5851C0.680609 16.8507 1.04094 17 1.41667 17H15.5833C15.9591 17 16.3194 16.8507 16.5851 16.5851C16.8507 16.3194 17 15.9591 17 15.5833V1.41667C17 1.04094 16.8507 0.680609 16.5851 0.414932C16.3194 0.149255 15.9591 0 15.5833 0ZM1.41667 15.5833V1.41667H15.5833V15.5833H1.41667Z" fill="black"/>
<path d="M7.08854 12.396L3.54688 8.88266L4.67313 7.79183L7.08854 10.1647L12.3373 4.9585L13.4635 6.07766L7.08854 12.396Z" fill="black"/>
</svg>
