<svg width="50" height="34" viewBox="0 0 50 34" fill="none" xmlns="http://www.w3.org/2000/svg">
<path d="M3.12638 31.379C2.56065 31.4652 2.01465 31.6507 1.47523 31.8362C1.38313 30.021 1.31735 28.2058 1.28445 26.3972C1.2713 25.8407 0.501634 25.8672 0.442429 26.3972C0.218766 28.5304 0.106934 30.6503 0.106934 32.8034C0.106934 33.2737 0.55426 33.5983 1.00159 33.4857C1.94886 33.2539 2.90272 32.8762 3.54082 32.1078C3.83027 31.7567 3.55397 31.3128 3.12638 31.379Z" fill="black"/>
<path d="M5.44875 26.9466C5.31719 28.7883 5.09352 30.8287 5.69873 32.6108C5.81714 32.9487 6.41577 33.0414 6.47498 32.6108C6.74469 30.7492 6.33683 28.8082 6.18553 26.9466C6.15264 26.4696 5.48822 26.463 5.44875 26.9466Z" fill="black"/>
<path d="M11.9214 26.3113C10.8886 26.2649 9.88217 26.7154 8.86253 26.828C8.40205 26.881 8.38231 27.4905 8.82964 27.57C8.82306 27.6097 8.81648 27.6495 8.8099 27.6892C8.78359 29.3057 8.71781 30.9486 8.84937 32.5651C8.86911 32.83 9.02041 33.0884 9.29012 33.148C9.40853 33.1745 9.49405 33.1878 9.61246 33.148C9.86901 33.0619 10.0532 32.8367 10.0532 32.5651C10.0532 31.9158 10.0203 31.2666 9.97426 30.6174C10.665 30.3524 11.4346 30.1073 11.9083 29.5243C12.1188 29.2659 11.9806 28.8949 11.6386 28.8751C11.0202 28.8353 10.4282 29.1069 9.86243 29.3852C9.80981 28.8221 9.7506 28.2523 9.6914 27.6892C9.6914 27.6693 9.68482 27.6495 9.67824 27.6296C10.5729 27.6561 11.4741 27.5435 12.1846 26.9671C12.4806 26.7485 12.2306 26.3245 11.9214 26.3113Z" fill="black"/>
<path d="M17.3221 28.2389C16.9077 28.3979 16.4867 28.5039 16.0986 28.7092C15.796 28.8682 15.4999 29.0339 15.1973 29.1796C15.171 28.7689 15.1381 28.3515 15.1118 27.9408C15.1052 27.8878 15.0986 27.8414 15.0789 27.8016C15.8223 27.6559 16.5722 27.3975 17.0129 26.8344C17.1577 26.6489 17.0721 26.3773 16.8222 26.3641C15.8683 26.3177 14.8618 26.8874 13.954 27.1392C13.5198 27.2584 13.5922 28.0203 14.0659 27.954C14.1777 27.9408 14.2961 27.9209 14.4145 27.9076C14.4145 27.9143 14.4079 27.9275 14.4079 27.9341C14.3619 28.8152 14.3224 29.6963 14.2764 30.5774C14.2435 31.1869 13.9935 32.1409 14.3685 32.6775C14.9934 33.5652 17.1116 32.9027 17.5326 32.0945C17.651 31.8626 17.5589 31.5314 17.2827 31.4718C16.9011 31.3856 16.6511 31.4585 16.2762 31.5513C16.0262 31.6109 15.6578 31.7633 15.3552 31.7898C15.3092 31.4916 15.342 31.0875 15.3289 30.8689C15.3092 30.5774 15.2894 30.2793 15.2697 29.9878C15.2697 29.9746 15.2697 29.9679 15.2697 29.9547C15.7104 29.8818 16.1643 29.7957 16.5788 29.6301C17.0129 29.4578 17.355 29.1663 17.7102 28.8682C17.9734 28.6364 17.6708 28.1064 17.3221 28.2389Z" fill="black"/>
<path d="M26.0519 29.425C25.7033 29.8225 25.4007 30.2266 25.0586 30.5975C24.9599 30.4452 24.8612 30.2928 24.7691 30.1404C24.7165 30.0543 24.5126 29.6966 24.2955 29.2792C24.8349 28.4909 25.2362 27.6098 24.6705 26.8678C24.3152 26.3974 23.6837 26.3643 23.2167 26.6823C22.6115 27.0997 22.5588 27.8748 22.7759 28.524C22.8614 28.7956 22.9733 29.0606 23.1048 29.319C23.039 29.3985 22.9733 29.478 22.9141 29.5575C22.4996 30.0676 22.0655 30.6108 21.901 31.26C21.5787 32.5651 22.5786 33.38 23.7758 32.8301C24.2429 32.6181 24.7231 32.3266 25.1638 31.9755C25.4401 32.2272 25.723 32.4657 26.0059 32.6777C26.2558 32.8632 26.519 32.4724 26.3282 32.2604C26.1045 32.0153 25.9006 31.7635 25.7033 31.4985C26.1901 31.0149 26.5848 30.4584 26.815 29.8556C26.9466 29.4448 26.3348 29.1004 26.0519 29.425ZM23.8284 27.4905C24.0061 27.4773 23.9995 27.9145 23.9797 28.0139C23.9666 28.1 23.9074 28.206 23.8482 28.3054C23.6771 27.8615 23.6114 27.5104 23.8284 27.4905ZM22.8351 31.9026C22.6115 31.6376 23.1048 30.9155 23.2496 30.6837C23.3416 30.5379 23.4666 30.3723 23.6048 30.2001C23.8482 30.5578 24.1179 30.9023 24.4073 31.2269C24.3284 31.2932 24.2429 31.3594 24.1574 31.419C23.9074 31.5979 23.1114 32.2339 22.8351 31.9026Z" fill="black"/>
<path d="M34.6166 28.5375C34.9784 27.8485 34.7021 27.027 33.9324 26.7819C33.097 26.5169 32.2352 27.1264 32.0445 27.9413C31.7879 29.0145 32.5115 29.6968 33.1957 30.3858C33.3799 30.5713 33.7351 30.9158 33.6759 31.2271C33.5904 31.6644 32.8668 31.6048 32.5707 31.565C31.9392 31.4789 31.4656 31.1278 31.1893 30.5448C31.0511 30.2467 30.6433 30.4256 30.6236 30.6972C30.4788 32.5389 33.0444 33.4199 34.2942 32.2209C34.8994 31.6379 34.7679 30.7303 34.3206 30.0877C34.0443 29.6968 33.643 29.4318 33.3404 29.0675C33.1167 28.7959 32.9194 28.3719 33.1101 28.0208C33.347 27.5835 34.018 27.716 33.9456 28.246C33.8864 28.6302 34.4061 28.9416 34.6166 28.5375Z" fill="black"/>
<path d="M39.3525 26.4168C38.7868 26.238 38.1684 26.4566 37.6158 26.5957C37.0172 26.7414 36.3594 26.8143 35.8265 27.1323C35.5371 27.3045 35.5766 27.8014 35.9252 27.8743C36.4844 28.0002 37.0633 27.8809 37.6224 27.7683C37.504 27.8147 37.4053 27.9273 37.3856 28.1194C37.2146 29.5702 36.7607 31.1602 36.912 32.6242C36.958 33.0747 37.5172 33.3795 37.7408 32.8826C38.3723 31.4517 38.2079 29.663 38.0632 28.1194C38.0369 27.8677 37.879 27.7484 37.7277 27.7484C37.754 27.7418 37.7869 27.7352 37.8132 27.7285C38.4052 27.6093 39.1091 27.5033 39.5236 27.0197C39.6946 26.8143 39.6222 26.4963 39.3525 26.4168Z" fill="black"/>
<path d="M43.5965 28.0537C43.3334 27.3316 42.544 25.4766 41.5506 26.5631C41.4783 26.636 41.452 26.7287 41.4585 26.8214C41.4454 26.8479 41.4322 26.8744 41.4256 26.9009C41.0244 28.683 40.2679 30.7168 40.5178 32.5585C40.5573 32.85 41.0112 32.8831 41.1362 32.638C41.4717 31.9623 41.6625 31.1938 41.7809 30.3988C42.0703 30.3789 42.3795 30.3392 42.6492 30.2266C42.7676 30.1736 42.8729 30.114 42.965 30.0411C43.1886 30.9685 43.2478 32.1743 43.7346 32.9957C43.9583 33.3733 44.6819 33.3667 44.7608 32.8632C44.8793 32.0948 44.603 31.2932 44.4056 30.5512C44.1754 29.7032 43.8925 28.8685 43.5965 28.0537ZM42.2019 29.2329C42.0966 29.2859 41.998 29.3455 41.8927 29.3985C41.9651 28.6234 41.998 27.8483 42.0703 27.1328C42.2808 27.3249 42.5242 28.3849 42.5571 28.4843C42.6097 28.6631 42.6558 28.842 42.7018 29.0209C42.5374 29.0871 42.3729 29.1467 42.2019 29.2329Z" fill="black"/>
<path d="M48.9309 26.3775C48.7731 27.358 48.5757 28.3384 48.3389 29.3056C47.8981 29.14 47.4508 28.8684 47.1548 28.504C46.793 28.0602 46.6154 27.4905 46.4378 26.9538C46.2733 26.457 45.53 26.6557 45.6615 27.1725C45.9378 28.2788 46.7404 30.4054 48.181 29.9549C47.9245 30.9287 47.3258 32.0947 47.4837 33.1083C47.5232 33.3468 47.8192 33.3534 47.9639 33.2341C48.7928 32.5783 49.023 31.048 49.2204 30.0741C49.4704 28.8618 49.5493 27.6826 49.5164 26.4504C49.5032 26.139 48.9901 26.033 48.9309 26.3775Z" fill="black"/>
<path d="M24.8807 9.7492C24.065 11.6704 23.1046 13.5518 21.881 15.2345C21.1903 16.1885 20.3614 17.0828 19.3484 17.6857C18.4208 18.2289 17.2302 18.6198 16.4342 17.7055C17.7696 16.5065 18.8682 15.0291 19.7168 13.4458C20.4272 12.1142 21.0785 10.5177 20.4272 9.0271C19.8812 7.77502 18.5524 7.05955 17.2499 7.59615C15.9868 8.11288 15.1777 9.46434 14.6712 10.6767C14.0923 12.0546 13.8423 13.5916 13.987 15.0888C14.0528 15.7711 14.1844 16.4932 14.4212 17.1689C10.7505 19.7924 5.08657 19.9513 2.51445 15.7049C1.15931 13.4657 1.46192 10.6568 3.0144 8.58987C3.75117 7.6094 4.86291 6.71506 6.11279 6.55606C7.29031 6.41032 8.59939 6.9668 9.04014 8.13276C9.16513 8.45737 9.60588 8.3315 9.54667 7.99364C9.3559 6.79455 8.4744 5.89359 7.36925 5.47622C6.09305 4.99262 4.63266 5.29736 3.51435 6.03933C1.0409 7.68227 -0.360279 10.8357 0.0804687 13.7771C0.481746 16.4468 2.41577 18.8185 4.83659 19.9248C7.66527 21.2167 10.9413 20.9451 13.6976 19.587C14.237 19.322 14.7435 19.0173 15.2303 18.6728C15.329 18.792 15.4277 18.9046 15.5395 19.0106C16.6381 20.0706 18.1051 19.9712 19.4207 19.3882C21.9336 18.2753 23.6506 15.738 24.907 13.2338C24.986 14.3203 25.1833 15.3869 25.657 16.3673C26.4266 17.9573 28.0252 19.1564 29.8145 18.7854C30.6368 18.6131 30.3407 17.5068 29.6303 17.4273C26.1175 17.0166 26.4464 12.2931 26.499 9.73595C26.499 9.67633 26.499 9.61671 26.5056 9.55708C26.9134 8.4905 27.2884 7.41066 27.6436 6.3242C28.2291 4.54876 29.0843 2.6077 28.9593 0.699766C28.9198 0.163159 28.2028 -0.2807 27.7949 0.216157C25.5649 2.91244 24.9926 6.34407 24.8807 9.7492ZM16.0724 11.0344C16.4144 10.2527 17.2236 8.63624 18.3024 8.88798C19.5194 9.16622 19.1905 10.882 18.8418 11.677C18.1248 13.3133 16.9999 14.8834 15.6645 16.1355C15.5198 15.5856 15.4474 15.0026 15.4277 14.4727C15.3882 13.3001 15.5921 12.1076 16.0724 11.0344Z" fill="black"/>
<path d="M20.243 0.779545C19.5194 0.872291 18.9405 1.45527 18.3945 1.90576C17.7498 2.43574 17.1183 2.97897 16.5394 3.58845C16.2631 3.87994 16.6117 4.29067 16.9538 4.12505C17.6709 3.78057 18.3418 3.35658 19.0128 2.92597C19.5654 2.57486 20.3943 2.1575 20.6771 1.54802C20.8219 1.24328 20.664 0.726547 20.243 0.779545Z" fill="black"/>
<path d="M34.5379 4.07233C34.7878 4.18499 35.0378 4.30429 35.2944 4.40371C35.5246 4.48987 35.768 4.51638 36.0048 4.56277C36.2285 4.60254 36.4587 4.53626 36.5771 4.32418C36.689 4.13197 36.6627 3.86024 36.4982 3.70118C36.3074 3.52223 36.1232 3.33003 35.9061 3.18422C35.7022 3.04504 35.4851 2.93237 35.2681 2.81307C34.926 2.62087 34.4787 2.72692 34.2747 3.07818C34.0971 3.38968 34.1826 3.90663 34.5379 4.07233Z" fill="black"/>
<path d="M32.7683 10.7233C32.4788 11.9092 32.3209 13.095 32.3012 14.314C32.2815 15.3408 32.2815 16.4538 32.6433 17.4276C32.9788 18.3352 33.5708 19.1236 34.4984 19.4614C35.3535 19.7662 36.2219 19.6535 36.8797 18.9977C37.3073 18.5671 36.8797 17.7456 36.2745 17.9443C34.9588 18.3816 34.3076 16.8976 34.1563 15.8575C33.9195 14.2477 34.0642 12.5385 34.2484 10.9287C34.3339 10.0675 32.9656 9.9085 32.7683 10.7233Z" fill="black"/>
<path d="M48.6944 9.20591C46.6617 9.30528 44.6027 9.27878 42.5897 8.90779C41.3398 8.6428 40.8004 10.5375 42.0569 10.8488C42.1292 10.8687 42.2016 10.882 42.2739 10.9018C43.0041 11.1271 43.3725 11.8757 43.5962 12.5978C43.9383 13.724 44.0238 14.9496 43.8396 16.1155C43.6949 16.9966 43.4251 18.3083 42.5897 18.8118C41.8529 19.2557 41.5174 18.1427 41.3793 17.6127C40.1097 12.7899 40.7346 7.76833 41.695 2.96537C41.7871 2.50164 41.1162 2.1439 40.8859 2.62088C38.7545 7.05948 38.5506 12.3725 39.4453 17.1623C39.6294 18.1427 39.8465 19.1762 40.5175 19.9447C41.1754 20.6999 42.2213 20.9649 43.1489 20.5873C45.2473 19.726 45.8328 16.8111 45.8328 14.7906C45.8328 13.7174 45.6618 12.4255 45.1947 11.3192C46.4446 11.3788 47.6945 11.2728 48.9312 10.9747C49.8982 10.7429 49.7009 9.15953 48.6944 9.20591Z" fill="black"/>
</svg>
