<svg width="26" height="25" viewBox="0 0 26 25" fill="none" xmlns="http://www.w3.org/2000/svg">
<path d="M13.0245 8.06103C10.8102 8.06103 9.00317 9.86808 9.00317 12.0824C9.00317 14.2967 10.8102 16.1038 13.0245 16.1038C15.2387 16.1038 17.0458 14.2967 17.0458 12.0824C17.0458 9.86808 15.2387 8.06103 13.0245 8.06103ZM25.0853 12.0824C25.0853 10.4171 25.1004 8.76695 25.0069 7.10471C24.9134 5.17397 24.4729 3.46044 23.0611 2.04859C21.6462 0.633723 19.9358 0.196291 18.0051 0.102771C16.3398 0.0092509 14.6897 0.0243348 13.0275 0.0243348C11.3622 0.0243348 9.7121 0.0092509 8.04989 0.102771C6.11919 0.196291 4.40569 0.63674 2.99387 2.04859C1.57902 3.46346 1.1416 5.17397 1.04808 7.10471C0.954564 8.76997 0.969647 10.4201 0.969647 12.0824C0.969647 13.7446 0.954564 15.3978 1.04808 17.0601C1.1416 18.9908 1.58204 20.7043 2.99387 22.1162C4.40871 23.5311 6.11919 23.9685 8.04989 24.062C9.71512 24.1555 11.3653 24.1404 13.0275 24.1404C14.6927 24.1404 16.3429 24.1555 18.0051 24.062C19.9358 23.9685 21.6493 23.528 23.0611 22.1162C24.4759 20.7013 24.9134 18.9908 25.0069 17.0601C25.1034 15.3978 25.0853 13.7477 25.0853 12.0824ZM13.0245 18.2698C9.60048 18.2698 6.83717 15.5064 6.83717 12.0824C6.83717 8.65835 9.60048 5.89498 13.0245 5.89498C16.4484 5.89498 19.2118 8.65835 19.2118 12.0824C19.2118 15.5064 16.4484 18.2698 13.0245 18.2698ZM19.4652 7.08661C18.6657 7.08661 18.0202 6.44102 18.0202 5.64157C18.0202 4.84213 18.6657 4.19654 19.4652 4.19654C20.2646 4.19654 20.9102 4.84213 20.9102 5.64157C20.9104 5.8314 20.8732 6.01942 20.8007 6.19485C20.7281 6.37027 20.6217 6.52967 20.4875 6.6639C20.3532 6.79813 20.1938 6.90456 20.0184 6.9771C19.843 7.04963 19.655 7.08685 19.4652 7.08661Z" fill="white"/>
</svg>
