<svg width="50" height="46" viewBox="0 0 50 46" fill="none" xmlns="http://www.w3.org/2000/svg">
<path d="M24.9546 0.930176C38.4525 0.930176 49.3946 9.36666 49.3946 19.7764C49.3946 30.1839 38.4525 38.6203 24.9546 38.6203C23.6106 38.621 22.2679 38.5364 20.9349 38.3671L10.6747 45.0053C9.50857 45.6154 9.09658 45.5487 9.57607 44.0543L11.6523 35.5856C4.94876 32.2239 0.514648 26.3985 0.514648 19.7764C0.514648 9.36896 11.4568 0.930176 24.9546 0.930176ZM38.7039 19.4886L42.1255 16.2098C42.3229 16.0069 42.4331 15.7362 42.4327 15.4547C42.4324 15.1731 42.3216 14.9026 42.1237 14.7003C41.9257 14.4979 41.6561 14.3794 41.3716 14.3698C41.0872 14.3602 40.81 14.4602 40.5986 14.6487L36.1109 18.9452V15.3947C36.1109 15.1064 35.9952 14.83 35.7891 14.6262C35.5831 14.4224 35.3037 14.3079 35.0123 14.3079C34.7209 14.3079 34.4415 14.4224 34.2354 14.6262C34.0294 14.83 33.9137 15.1064 33.9137 15.3947V21.2823C33.8725 21.4502 33.8725 21.6255 33.9137 21.7934V25.1068C33.9137 25.395 34.0294 25.6714 34.2354 25.8752C34.4415 26.0791 34.7209 26.1936 35.0123 26.1936C35.3037 26.1936 35.5831 26.0791 35.7891 25.8752C35.9952 25.6714 36.1109 25.395 36.1109 25.1068V21.9684L37.1048 21.0175L40.4287 25.6985C40.5117 25.8154 40.6171 25.9149 40.739 25.9915C40.8609 26.068 40.9968 26.1201 41.139 26.1447C41.2812 26.1693 41.427 26.1659 41.5679 26.1348C41.7088 26.1037 41.8421 26.0454 41.9602 25.9633C42.0784 25.8812 42.179 25.7769 42.2564 25.6563C42.3338 25.5358 42.3864 25.4013 42.4113 25.2606C42.4361 25.1199 42.4327 24.9758 42.4013 24.8364C42.3698 24.697 42.3109 24.5651 42.2279 24.4482L38.7039 19.4863V19.4886ZM31.8188 23.9187H28.4205V15.4292C28.4075 15.1499 28.2862 14.8864 28.0818 14.6933C27.8774 14.5002 27.6056 14.3924 27.323 14.3924C27.0404 14.3924 26.7686 14.5002 26.5642 14.6933C26.3598 14.8864 26.2385 15.1499 26.2255 15.4292V25.0055C26.2255 25.6041 26.7143 26.0923 27.3218 26.0923H31.8188C32.1102 26.0923 32.3896 25.9778 32.5956 25.7739C32.8017 25.5701 32.9174 25.2937 32.9174 25.0055C32.9174 24.7172 32.8017 24.4408 32.5956 24.237C32.3896 24.0332 32.1102 23.9187 31.8188 23.9187V23.9187ZM18.1859 21.4043L19.806 17.4739L21.291 21.4043H18.1859V21.4043ZM24.0585 22.5279L24.0632 22.4911C24.0626 22.2173 23.957 21.9539 23.7676 21.7543L21.3329 15.3072C21.2308 15 21.0364 14.7309 20.7756 14.5358C20.5148 14.3408 20.2001 14.2292 19.8735 14.2158C19.5444 14.2144 19.2227 14.3121 18.9512 14.4959C18.6797 14.6798 18.4712 14.9411 18.3535 15.245L14.4873 24.6278C14.4328 24.76 14.4051 24.9015 14.4058 25.0442C14.4065 25.1869 14.4356 25.3281 14.4915 25.4597C14.5474 25.5913 14.6289 25.7107 14.7314 25.8112C14.8339 25.9116 14.9555 25.9911 15.089 26.0451C15.2226 26.099 15.3656 26.1264 15.5099 26.1257C15.6542 26.125 15.7969 26.0962 15.93 26.041C16.063 25.9857 16.1837 25.905 16.2853 25.8036C16.3868 25.7022 16.4671 25.582 16.5217 25.4498L17.2898 23.5779H22.108L22.8039 25.4199C22.8512 25.5576 22.926 25.6845 23.0238 25.7931C23.1216 25.9017 23.2404 25.9897 23.3733 26.052C23.5061 26.1144 23.6502 26.1497 23.7971 26.1559C23.944 26.1621 24.0906 26.1391 24.2283 26.0883C24.3661 26.0374 24.4921 25.9597 24.5989 25.8598C24.7057 25.7599 24.7912 25.6398 24.8502 25.5066C24.9093 25.3735 24.9407 25.2299 24.9426 25.0845C24.9446 24.9391 24.917 24.7948 24.8615 24.6601L24.0585 22.5279V22.5279ZM16.3262 15.4407C16.3262 15.1529 16.2107 14.8768 16.0052 14.6731C15.7997 14.4693 15.5208 14.3546 15.2299 14.3539H7.67673C7.38536 14.3539 7.10591 14.4684 6.89988 14.6723C6.69384 14.8761 6.5781 15.1525 6.5781 15.4407C6.5781 15.729 6.69384 16.0054 6.89988 16.2092C7.10591 16.413 7.38536 16.5275 7.67673 16.5275H10.3768V25.1298C10.3768 25.418 10.4925 25.6945 10.6986 25.8983C10.9046 26.1021 11.184 26.2166 11.4754 26.2166C11.7668 26.2166 12.0462 26.1021 12.2523 25.8983C12.4583 25.6945 12.574 25.418 12.574 25.1298V16.5275H15.2275C15.5189 16.5275 15.7983 16.413 16.0044 16.2092C16.2104 16.0054 16.3262 15.729 16.3262 15.4407V15.4407Z" fill="white"/>
</svg>
