<svg width="80" height="80" viewBox="0 0 80 80" fill="none" xmlns="http://www.w3.org/2000/svg">
<path d="M62.9864 63.1933L63.11 63.4879L63.4295 63.492L69.2817 63.5671V67.9307H51.3107V63.5674L57.4874 63.492L58.2106 63.4832L57.9307 62.8163L40.4494 21.1698C40.4489 21.1688 40.4485 21.1678 40.4481 21.1667C39.8944 19.7988 38.9635 18.6994 37.7324 17.8404C36.4895 16.9733 35.0666 16.5078 33.5292 16.5078C31.4443 16.5078 29.6425 17.2952 28.1745 18.792C26.7057 20.2895 25.9782 22.0626 25.9782 24.14V33.2338V33.7209H26.4654H31.8783C33.8177 33.7209 35.542 34.237 37.0343 35.1633L37.0415 35.1677L37.0488 35.1719C38.6305 36.0795 39.8908 37.2909 40.7914 38.8862C41.7035 40.5019 42.217 42.2065 42.217 44.0596V67.9307H30.0643C30.9773 66.6117 31.6419 65.1349 32.0232 63.5733H37.2912H37.7784V63.0861V44.0596C37.7784 42.5049 37.2458 41.1045 36.0908 39.978C34.945 38.8332 33.55 38.2407 31.8783 38.2407H18.346H17.8588V38.7279V46.3685C16.35 46.4205 14.8923 46.7149 13.5014 47.2521V33.7209H21.1336H21.6252L21.6208 33.2294L21.5396 24.14C21.5396 24.1393 21.5396 24.1386 21.5396 24.1379C21.54 21.9537 22.1114 19.9281 23.1779 18.1072C24.2467 16.2824 25.7043 14.799 27.5279 13.7048C29.3445 12.6149 31.3414 12.0692 33.5292 12.0692C35.9773 12.0692 38.183 12.7445 40.1587 14.0701C42.166 15.4259 43.6474 17.1934 44.6113 19.3797L62.9864 63.1933ZM21.5396 60.2984C21.5396 58.5408 20.1036 57.1048 18.346 57.1048C16.5884 57.1048 15.1523 58.5408 15.1523 60.2984C15.1523 62.056 16.5884 63.4921 18.346 63.4921C20.1036 63.4921 21.5396 62.056 21.5396 60.2984ZM10.7137 60.2984C10.7137 56.0748 14.1223 52.6662 18.346 52.6662C22.5696 52.6662 25.9782 56.0748 25.9782 60.2984C25.9782 64.5221 22.5696 67.9307 18.346 67.9307C14.1223 67.9307 10.7137 64.5221 10.7137 60.2984Z" fill="black" stroke="white" stroke-width="0.974328"/>
</svg>
