<svg width="80" height="80" viewBox="0 0 80 80" fill="none" xmlns="http://www.w3.org/2000/svg">
<path d="M45.4174 22.7567C46.9121 22.7567 48.1239 21.545 48.1239 20.0502C48.1239 18.5555 46.9121 17.3438 45.4174 17.3438C43.9227 17.3438 42.7109 18.5555 42.7109 20.0502C42.7109 21.545 43.9227 22.7567 45.4174 22.7567Z" fill="black"/>
<path d="M53.5346 22.7567C55.0293 22.7567 56.2411 21.545 56.2411 20.0502C56.2411 18.5555 55.0293 17.3438 53.5346 17.3438C52.0399 17.3438 50.8281 18.5555 50.8281 20.0502C50.8281 21.545 52.0399 22.7567 53.5346 22.7567Z" fill="black"/>
<path d="M58.9486 12.9355H21.058C19.5633 12.9355 18.3516 14.1473 18.3516 15.642V64.3584C18.3516 65.8532 19.5633 67.0649 21.058 67.0649H58.9486C60.4433 67.0649 61.655 65.8532 61.655 64.3584V15.642C61.655 14.1473 60.4433 12.9355 58.9486 12.9355Z" stroke="black" stroke-width="3.24776"/>
<path d="M18.3516 28.4971H61.655" stroke="black" stroke-width="3.24776" stroke-linecap="round" stroke-linejoin="round"/>
<path d="M40.0039 57.5918C45.2355 57.5918 49.4765 53.3507 49.4765 48.1191C49.4765 42.8875 45.2355 38.6465 40.0039 38.6465C34.7723 38.6465 30.5312 42.8875 30.5312 48.1191C30.5312 53.3507 34.7723 57.5918 40.0039 57.5918Z" stroke="black" stroke-width="3.24776"/>
</svg>
