<svg width="80" height="80" viewBox="0 0 80 80" fill="none" xmlns="http://www.w3.org/2000/svg">
<path fill-rule="evenodd" clip-rule="evenodd" d="M60.2973 18.3481H19.7003C19.3414 18.3481 18.9972 18.4906 18.7434 18.7444C18.4897 18.9982 18.3471 19.3424 18.3471 19.7013V60.2983C18.3471 60.6572 18.4897 61.0014 18.7434 61.2552C18.9972 61.509 19.3414 61.6515 19.7003 61.6515H60.2973C60.6562 61.6515 61.0004 61.509 61.2542 61.2552C61.508 61.0014 61.6506 60.6572 61.6506 60.2983V19.7013C61.6506 19.3424 61.508 18.9982 61.2542 18.7444C61.0004 18.4906 60.6562 18.3481 60.2973 18.3481ZM19.7003 15.6416C18.6236 15.6416 17.591 16.0693 16.8297 16.8307C16.0683 17.592 15.6406 18.6246 15.6406 19.7013V60.2983C15.6406 61.375 16.0683 62.4076 16.8297 63.1689C17.591 63.9303 18.6236 64.358 19.7003 64.358H60.2973C61.374 64.358 62.4066 63.9303 63.168 63.1689C63.9293 62.4076 64.357 61.375 64.357 60.2983V19.7013C64.357 18.6246 63.9293 17.592 63.168 16.8307C62.4066 16.0693 61.374 15.6416 60.2973 15.6416H19.7003Z" fill="black"/>
<path fill-rule="evenodd" clip-rule="evenodd" d="M22.0377 34.6379C21.8668 34.6868 21.7073 34.7689 21.5681 34.8796C21.429 34.9902 21.313 35.1271 21.2268 35.2826C21.1406 35.438 21.0858 35.6089 21.0657 35.7855C21.0456 35.9621 21.0604 36.141 21.1094 36.3118L23.7266 45.4746L21.9822 54.6319C21.9663 54.7153 21.9581 54.8001 21.9579 54.885H17.6735C17.3146 54.885 16.9704 55.0275 16.7167 55.2813C16.4629 55.5351 16.3203 55.8793 16.3203 56.2382C16.3203 56.5971 16.4629 56.9413 16.7167 57.1951C16.9704 57.4489 17.3146 57.5914 17.6735 57.5914H61.6536C62.0125 57.5914 62.3567 57.4489 62.6105 57.1951C62.8643 56.9413 63.0069 56.5971 63.0069 56.2382C63.0069 55.8793 62.8643 55.5351 62.6105 55.2813C62.3567 55.0275 62.0125 54.885 61.6536 54.885H58.0459C58.0458 54.8 58.0376 54.7153 58.0216 54.6319L56.2759 45.4746L58.8944 36.3118C58.9931 35.9668 58.9507 35.5966 58.7764 35.2828C58.6022 34.969 58.3105 34.7373 57.9654 34.6386C57.6203 34.5399 57.2502 34.5823 56.9364 34.7565C56.6226 34.9307 56.3908 35.2225 56.2921 35.5676L54.6696 41.2484H44.0616V43.9549H45.8316V46.2446H45.1022C44.79 46.2444 44.4873 46.3523 44.2455 46.5499C44.0036 46.7474 43.8376 47.0226 43.7755 47.3286C43.7133 47.6346 43.759 47.9527 43.9046 48.2289C44.0502 48.5051 44.2869 48.7225 44.5745 48.8441L42.772 54.4736C42.7297 54.6066 42.7082 54.7454 42.7084 54.885H37.2954C37.2953 54.7449 37.2734 54.6056 37.2305 54.4722L35.4307 48.8441C35.7175 48.7219 35.9534 48.5044 36.0984 48.2284C36.2434 47.9523 36.2886 47.6347 36.2263 47.3291C36.1641 47.0236 35.9983 46.7489 35.7569 46.5515C35.5155 46.3542 35.2134 46.2462 34.9016 46.2459H34.1722V43.9549H35.9422V41.2484H25.3328L23.7103 35.5676C23.6118 35.2225 23.3802 34.9307 23.0665 34.7564C22.7529 34.582 22.3828 34.5394 22.0377 34.6379ZM48.5381 46.2446H53.6682L53.5586 45.6654C53.5186 45.4578 53.5279 45.2436 53.5857 45.0402L53.8969 43.9549H48.5381V46.2446ZM47.2146 49.472H54.2826L55.3137 54.885H45.4825L47.2146 49.472ZM31.4657 43.9549V46.2446H26.3356L26.4452 45.6654C26.4852 45.4578 26.4759 45.2436 26.4181 45.0402L26.1069 43.9549H31.4657ZM25.7212 49.472L24.6901 54.885H34.5213L32.7892 49.472H25.7212Z" fill="black"/>
</svg>
