<svg width="80" height="80" viewBox="0 0 80 80" fill="none" xmlns="http://www.w3.org/2000/svg">
<path d="M45.3289 48.9485H45.6536V48.6237V46.3401C45.6536 46.2404 45.7366 46.1574 45.8363 46.1574H48.3736C48.4734 46.1574 48.5563 46.2404 48.5563 46.3401V51.6685C48.5563 51.7682 48.4734 51.8512 48.3736 51.8512H31.6274C31.5276 51.8512 31.4447 51.7682 31.4447 51.6685V46.3401C31.4447 46.2404 31.5276 46.1574 31.6274 46.1574H34.1647C34.2644 46.1574 34.3474 46.2404 34.3474 46.3401V48.6237V48.9485H34.6721H45.3289ZM62.6388 32.9205L62.7715 33.2868L63.1079 33.0904L66.3222 31.2137C66.3225 31.2136 66.3227 31.2135 66.3229 31.2133C66.3646 31.1896 66.414 31.1832 66.4603 31.1955C66.5066 31.2079 66.5462 31.2379 66.5706 31.2791C66.5708 31.2794 66.571 31.2797 66.5711 31.28L68.0708 33.8995C68.0711 33.9001 68.0714 33.9006 68.0717 33.9012C68.0941 33.9427 68.0996 33.9913 68.0869 34.0369C68.0741 34.083 68.0437 34.1222 68.0023 34.1462L68.0009 34.1469L64.1759 36.3798L63.942 36.5163L64.0343 36.7709L64.9541 39.3083L64.9554 39.3116C65.0175 39.4772 65.0489 39.6542 65.0489 39.8319V61.9192C65.0489 62.7594 64.423 63.3959 63.7053 63.3959H59.4173C58.8101 63.3959 58.2557 62.9337 58.1115 62.2408C58.1115 62.2405 58.1114 62.2403 58.1114 62.2401L57.6232 59.8497L57.5701 59.59H57.305H22.696H22.4309L22.3778 59.8497L21.8894 62.2412L21.8891 62.2425C21.7513 62.9318 21.1929 63.3959 20.5837 63.3959H16.2957C15.578 63.3959 14.9521 62.7593 14.9521 61.9192V39.8319C14.9521 39.6542 14.9835 39.4772 15.0456 39.3116L15.0457 39.3116L15.0469 39.3083L15.9667 36.7709L16.059 36.5161L15.8249 36.3797L11.9935 34.1468L11.9927 34.1464C11.9056 34.0959 11.8782 33.9896 11.9271 33.9051L11.9277 33.904L13.4299 31.2863C13.43 31.2861 13.4302 31.2858 13.4303 31.2855C13.4547 31.2443 13.4943 31.2142 13.5407 31.2019C13.5871 31.1895 13.6365 31.196 13.6782 31.2197C13.6784 31.2199 13.6786 31.22 13.6788 31.2201L16.8997 33.0968L17.2356 33.2926L17.3684 32.9272L22.1005 19.9108L22.1007 19.9109L22.1043 19.8997C22.7397 17.934 24.5687 16.6041 26.6289 16.6041L54.1143 16.6041L54.1145 16.6041C54.905 16.6035 55.6752 16.8541 56.3139 17.3198C56.9527 17.7855 57.4269 18.4421 57.6681 19.1948L57.6679 19.1949L57.672 19.2063L62.6388 32.9205ZM61.1312 40.314V40.2569L61.1118 40.2032L60.1222 37.4756L60.0446 37.2616H59.8169H20.1841H19.9564L19.8788 37.4756L18.8892 40.2032L18.8698 40.2569V40.314V55.3476V55.6723H19.1945H60.8065H61.1312V55.3476V40.314ZM25.7866 21.2373L25.7865 21.2373L25.7845 21.2429L21.1729 33.9231L21.0144 34.3589H21.4781H58.5356H58.9988L58.8409 33.9235L54.0581 20.7294L53.9805 20.5153H53.7527H26.6289C26.2651 20.5153 25.952 20.7462 25.8387 21.0863L25.8386 21.0863L25.8364 21.0935L25.8143 21.1653L25.7866 21.2373ZM54.1673 45.9382C53.7524 45.5233 53.5193 44.9605 53.5193 44.3737C53.5193 43.7869 53.7524 43.2241 54.1673 42.8092C54.5823 42.3943 55.145 42.1612 55.7318 42.1612C56.3186 42.1612 56.8814 42.3943 57.2963 42.8092C57.7113 43.2241 57.9444 43.7869 57.9444 44.3737C57.9444 44.9605 57.7113 45.5233 57.2963 45.9382C56.8814 46.3531 56.3186 46.5862 55.7318 46.5862C55.145 46.5862 54.5823 46.3531 54.1673 45.9382ZM22.7047 45.9382C22.2897 45.5233 22.0566 44.9605 22.0566 44.3737C22.0566 43.7869 22.2897 43.2241 22.7047 42.8092C23.1196 42.3943 23.6824 42.1612 24.2692 42.1612C24.856 42.1612 25.4187 42.3943 25.8337 42.8092C26.2486 43.2241 26.4817 43.7869 26.4817 44.3737C26.4817 44.9605 26.2486 45.5233 25.8337 45.9382C25.4187 46.3531 24.856 46.5862 24.2692 46.5862C23.6824 46.5862 23.1196 46.3531 22.7047 45.9382Z" fill="black" stroke="white" stroke-width="0.649552"/>
</svg>
