<svg width="80" height="80" viewBox="0 0 80 80" fill="none" xmlns="http://www.w3.org/2000/svg">
<path d="M37.601 16.3013C38.334 15.8943 39.1586 15.6807 39.997 15.6807C40.8354 15.6807 41.66 15.8943 42.393 16.3013L60.9366 26.6008C61.321 26.8146 61.6413 27.1273 61.8643 27.5065C62.0873 27.8857 62.2049 28.3176 62.2049 28.7575V49.0777C62.2047 49.9578 61.9691 50.8217 61.5227 51.5801C61.0763 52.3385 60.4351 52.9637 59.6658 53.391L42.393 62.9897C41.66 63.3968 40.8354 63.6104 39.997 63.6104C39.1586 63.6104 38.334 63.3968 37.601 62.9897L20.3282 53.391C19.5592 52.9639 18.9183 52.3391 18.4719 51.5812C18.0254 50.8233 17.7897 49.9598 17.7891 49.0802V28.7575C17.789 28.3176 17.9066 27.8857 18.1296 27.5065C18.3526 27.1273 18.6729 26.8146 19.0574 26.6008L37.6034 16.3013H37.601Z" stroke="black" stroke-width="2.62914" stroke-linecap="round" stroke-linejoin="round"/>
<path d="M39.997 39.6444V64.3198M17.7891 27.3066L39.997 39.6444L17.7891 27.3066ZM39.997 39.6444L62.2049 27.3066L39.997 39.6444Z" stroke="black" stroke-width="2.62914" stroke-linejoin="round"/>
<path d="M25.1953 40.4536L32.5979 44.5794M28.8966 33.4754L51.1045 21.1377L28.8966 33.4754Z" stroke="black" stroke-width="2.62914" stroke-linecap="round" stroke-linejoin="round"/>
</svg>
